<?xml version="1.0" encoding="UTF-8"?>
<svg width="240px" height="35px" viewBox="0 0 240 35" version="1.1" xmlns="http://www.w3.org/2000/svg" xmlns:xlink="http://www.w3.org/1999/xlink">
    <!-- Generator: Sketch 47.1 (45422) - http://www.bohemiancoding.com/sketch -->
    <title>logo</title>
    <desc>Created with Sketch.</desc>
    <defs>
        <path d="M0.173755798,29.2878908 L3.90780136,23.7683543 C5.13693084,25.1137987 6.61886535,26.207969 8.35364936,27.050898 C10.0884334,27.8938271 11.9826646,28.3152852 14.0364,28.3152852 C15.8256391,28.3152852 17.1947754,27.9627193 18.1438501,27.2575767 C19.0929247,26.5524342 19.567455,25.6730454 19.567455,24.6193842 C19.567455,23.9385569 19.3029627,23.3509469 18.7739703,22.8565366 C18.2449778,22.3621263 17.5526305,21.9811929 16.6969074,21.7137251 C15.8411844,21.4462572 14.8648968,21.1625834 13.7680154,20.8626952 C12.6711341,20.562807 11.547042,20.2791332 10.3957055,20.0116654 C9.24436906,19.7441975 8.120277,19.3551592 7.02339563,18.8445387 C5.92651426,18.3339182 4.9502267,17.7422558 4.09450364,17.0695336 C3.23878059,16.3968114 2.54643323,15.4850028 2.0174408,14.3340805 C1.48844836,13.1831581 1.22395611,11.8620488 1.22395611,10.3707129 C1.22395611,7.51772231 2.32471062,5.12270509 4.52625266,3.18558935 C6.7277947,1.24847361 9.6566574,0.27993027 13.3129286,0.27993027 C18.4161498,0.27993027 22.5624547,1.81987366 25.7519679,4.89980663 L21.9712468,10.1761917 C20.7110001,8.9766389 19.2718511,8.07293528 17.6537566,7.46505377 C16.0356621,6.85717226 14.3864751,6.55323607 12.7061462,6.55323607 C11.2903135,6.55323607 10.1856694,6.8490673 9.39218079,7.44073863 C8.59869214,8.03240997 8.20195376,8.83074904 8.20195376,9.8357798 C8.20195376,10.4517664 8.46255642,10.9866941 8.98376955,11.440579 C9.50498269,11.8944638 10.19733,12.2470298 11.0608324,12.4982875 C11.9243348,12.7495452 12.9045119,13.025114 14.0013933,13.3250022 C15.0982746,13.6248904 16.2145875,13.9126167 17.3503654,14.1881896 C18.4861433,14.4637626 19.6024561,14.8649584 20.6993375,15.391789 C21.7962189,15.9186196 22.776396,16.526492 23.6398984,17.2154244 C24.5034007,17.9043568 25.1957481,18.8242703 25.7169612,19.9751927 C26.2381744,21.126115 26.498777,22.4391193 26.498777,23.9142451 C26.498777,27.0914391 25.4058017,29.6647656 23.2198183,31.6343017 C21.0338348,33.6038378 17.8793758,34.588591 13.7563465,34.588591 C8.09301578,34.588591 3.56553081,32.8217086 0.173755798,29.2878908 Z M31.0263073,33.9807126 L31.0263073,0.766233045 L45.9391518,0.766233045 C47.6194807,0.766233045 49.1480903,1.04990683 50.5250265,1.6172629 C51.9019626,2.18461898 53.0299443,2.95459067 53.9090053,3.92720108 C54.7880662,4.89981149 55.4648552,6.03045414 55.9393925,7.31916294 C56.4139299,8.60787173 56.651195,9.9897683 56.651195,11.4648941 C56.651195,12.9238097 56.4139299,14.2935488 55.9393925,15.5741525 C55.4648552,16.8547563 54.7841766,17.9853989 53.8973364,18.9661144 C53.0104961,19.9468299 51.8825145,20.7208541 50.5133576,21.2882101 C49.1442007,21.8555662 47.6194807,22.13924 45.9391518,22.13924 L37.8176026,22.13924 L37.8176026,33.9807126 L31.0263073,33.9807126 Z M37.8176026,15.9145645 L44.9823026,15.9145645 C46.3514595,15.9145645 47.4833307,15.5093162 48.3779503,14.6988075 C49.2725698,13.8882989 49.7198729,12.8103385 49.7198729,11.4648941 C49.7198729,10.1032395 49.2725698,9.01717418 48.3779503,8.2066655 C47.4833307,7.39615682 46.3514595,6.99090856 44.9823026,6.99090856 L37.8176026,6.99090856 L37.8176026,15.9145645 Z M60.8986718,33.9807126 L60.8986718,0.766233045 L83.4663097,0.766233045 L83.4663097,6.99090856 L67.6899672,6.99090856 L67.6899672,13.9693534 L83.1162429,13.9693534 L83.1162429,20.1940289 L67.6899672,20.1940289 L67.6899672,27.7560371 L83.4663097,27.7560371 L83.4663097,33.9807126 L60.8986718,33.9807126 Z M87.223693,17.3977879 C87.223693,14.042282 87.9704947,11.0515499 89.4641204,8.42550175 C90.9577461,5.79945364 92.9958922,3.77321234 95.57862,2.34671706 C98.1613477,0.920221791 101.047425,0.206984853 104.236938,0.206984853 C105.917267,0.206984853 107.476993,0.429871396 108.916164,0.875651169 C110.355335,1.32143094 111.607783,1.9374083 112.673547,2.72360171 C113.739311,3.50979513 114.665034,4.36081648 115.450744,5.27669128 C116.236453,6.19256609 116.924911,7.20973922 117.516138,8.3282412 L111.681691,11.3190033 C110.997113,9.92492834 109.97804,8.77402328 108.624442,7.86625356 C107.270843,6.95848384 105.808357,6.50460579 104.236938,6.50460579 C101.32748,6.50460579 98.9276015,7.53393637 97.0372315,9.59262841 C95.1468615,11.6513205 94.2016907,14.2530143 94.2016907,17.3977879 C94.2016907,20.5425616 95.1468615,23.1483079 97.0372315,25.2151051 C98.9276015,27.2819022 101.32748,28.3152852 104.236938,28.3152852 C105.808357,28.3152852 107.270843,27.8573547 108.624442,26.9414799 C109.97804,26.0256051 110.997113,24.8706476 111.681691,23.4765726 L117.516138,26.4187044 C116.909352,27.5372064 116.220894,28.5543795 115.450744,29.4702543 C114.680593,30.3861291 113.75876,31.241203 112.685216,32.0355015 C111.611673,32.8298 110.355335,33.4538823 108.916164,33.9077672 C107.476993,34.361652 105.917267,34.588591 104.236938,34.588591 C101.856472,34.588591 99.6199568,34.1671329 97.527325,33.3242038 C95.4346932,32.4812748 93.6299225,31.3182123 92.1129589,29.8349814 C90.5959953,28.3517505 89.4018906,26.5362383 88.530609,24.3883903 C87.6593273,22.2405423 87.223693,19.9103648 87.223693,17.3977879 Z M119.593201,6.99090856 L119.593201,0.766233045 L145.031386,0.766233045 L145.031386,6.99090856 L135.742948,6.99090856 L135.742948,33.9807126 L128.928314,33.9807126 L128.928314,6.99090856 L119.593201,6.99090856 Z M149.348876,33.9807126 L149.348876,0.766233045 L171.916514,0.766233045 L171.916514,6.99090856 L156.140171,6.99090856 L156.140171,13.9693534 L171.566447,13.9693534 L171.566447,20.1940289 L156.140171,20.1940289 L156.140171,27.7560371 L171.916514,27.7560371 L171.916514,33.9807126 L149.348876,33.9807126 Z M177.190853,33.9807126 L177.190853,0.766233045 L192.103698,0.766233045 C195.371004,0.766233045 197.98092,1.76314376 199.933525,3.75699511 C201.886129,5.75084646 202.862417,8.32012043 202.862417,11.4648941 C202.862417,12.858969 202.660158,14.1476585 202.255634,15.3310012 C201.851111,16.5143438 201.306568,17.4990971 200.621989,18.2852905 C199.937411,19.0714839 199.194499,19.7198811 198.393231,20.2305016 C197.591963,20.7411221 196.740142,21.109898 195.837743,21.3368404 L203.049119,33.9807126 L195.207623,33.9807126 L188.953097,22.1878703 L183.982149,22.1878703 L183.982149,33.9807126 L177.190853,33.9807126 Z M183.982149,15.9631948 L191.146849,15.9631948 C192.516006,15.9631948 193.647877,15.553894 194.542496,14.7352803 C195.437116,13.9166665 195.884419,12.8103387 195.884419,11.4162638 C195.884419,10.0708194 195.437116,8.99691152 194.542496,8.19450793 C193.647877,7.39210434 192.516006,6.99090856 191.146849,6.99090856 L183.982149,6.99090856 L183.982149,15.9631948 Z" id="path-1"></path>
        <path d="M0.473038383,17.3965494 C0.473038383,14.9327806 0.889197847,12.6311363 1.72152926,10.4915475 C2.55386067,8.35195879 3.70121621,6.53252519 5.16363028,5.03319216 C6.62604435,3.53385914 8.39180507,2.35467166 10.4609654,1.49559436 C12.5301257,0.636517061 14.7548287,0.206984853 17.1351409,0.206984853 C20.3088906,0.206984853 23.1597774,0.936379168 25.6878869,2.39518968 C28.2159963,3.85400019 30.1956707,5.89630427 31.6269696,8.52216319 C33.0582685,11.1480221 33.7739072,14.1061213 33.7739072,17.3965494 C33.7739072,20.6869776 33.0582685,23.6450768 31.6269696,26.2709357 C30.1956707,28.8967946 28.2159963,30.9390987 25.6878869,32.3979092 C23.1597774,33.8567197 20.3088906,34.586114 17.1351409,34.586114 C14.7548287,34.586114 12.5301257,34.1565818 10.4609654,33.2975045 C8.39180507,32.4384272 6.62604435,31.2592397 5.16363028,29.7599067 C3.70121621,28.2605737 2.55386067,26.4411401 1.72152926,24.3015513 C0.889197847,22.1619626 0.473038383,19.8603183 0.473038383,17.3965494 Z" id="path-3"></path>
        <path d="M7.41858033,11.0295649 L7.41858033,18.7569461 L2.05816437,13.6175092 C1.72601276,13.2989491 1.18605347,13.2989491 0.853901866,13.6175092 C0.686974391,13.7776061 0.605213995,13.9867123 0.605213995,14.1941848 C0.605213995,14.4016573 0.688677732,14.6123971 0.855605207,14.7708603 L7.66897155,21.3054272 C8.00112315,21.6239874 8.54108244,21.6239874 8.87323405,21.3054272 L8.8715307,21.3054272 L15.684897,14.7708603 C16.0170487,14.4523002 16.0170487,13.9344357 15.684897,13.6158756 C15.3527454,13.2973155 14.8127862,13.2973155 14.4806345,13.6158756 L9.12192192,18.7569461 L9.12192192,11.0295649 L9.12192192,3.30218366 L14.4806345,8.44325419 C14.8127862,8.76181433 15.3527454,8.76181433 15.684897,8.44325419 C16.0170487,8.12469405 16.0170487,7.60682962 15.684897,7.28826949 L8.8715307,0.753702553 L8.87323405,0.753702553 C8.54108244,0.435142415 8.00112315,0.435142415 7.66897155,0.753702553 L0.855605207,7.28826949 C0.688677732,7.44673273 0.605213995,7.65747252 0.605213995,7.86494502 C0.605213995,8.07241752 0.686974391,8.28152366 0.853901866,8.44162055 C1.18605347,8.76018069 1.72601276,8.76018069 2.05816437,8.44162055 L7.41858033,3.30218366 L7.41858033,11.0295649 Z" id="path-5"></path>
    </defs>
    <g id="Page-1" stroke="none" stroke-width="1" fill="none" fill-rule="evenodd">
        <g id="Artboard" transform="translate(-19.000000, -60.000000)">
            <g id="logo" transform="translate(19.000000, 60.000000)">
                <g id="Mixins/Logo-Mask">
                    <g id="Logo-Mask">
                        <mask id="mask-2" fill="white">
                            <use xlink:href="#path-1"></use>
                        </mask>
                        <use id="Logo-Path" fill="#FFFFFF" xlink:href="#path-1"></use>
                    </g>
                    <g id="Bubble-Mask" transform="translate(205.913043, 0.000000)">
                        <mask id="mask-4" fill="white">
                            <use xlink:href="#path-3"></use>
                        </mask>
                        <use id="Mask" fill="#18FF6D" xlink:href="#path-3"></use>
                    </g>
                    <g id="Arrow-Mask" transform="translate(214.956522, 6.260870)">
                        <mask id="mask-6" fill="white">
                            <use xlink:href="#path-5"></use>
                        </mask>
                        <use id="Mask" fill="#0F1327" xlink:href="#path-5"></use>
                    </g>
                </g>
            </g>
        </g>
    </g>
</svg>